<svg xmlns="http://www.w3.org/2000/svg" viewBox="0 0 907.84 537.04"><defs><style>.cls-1{fill:#fff;}</style></defs><title>资源 1</title><g id="图层_2" data-name="图层 2"><g id="图层_1-2" data-name="图层 1"><path class="cls-1" d="M113.43,314.45c1.17-15.08,1.54-30.29,3.72-45.22,2.44-16.76,4.32-34.11,10.28-49.73,17.55-45.94,46-85,81.12-119.25,8.87-8.64,19.1-15.77,31.29-19,19.29-5.18,38.66-10,58-14.88a61.49,61.49,0,0,1,34.95,1.51c5,1.68,10,3.88,15.18,4.62,14.87,2.13,29.27,1.13,41.89-8.48,5.33-4.07,8.15-9.37,5.81-15.68-3.44-9.29-7.12-18.66-12.16-27.12-2.67-4.5-7.91-8.4-12.87-10.43A133.46,133.46,0,0,0,320.45.91a131.57,131.57,0,0,0-70,19.34c-24.64,15.17-48.35,32-71.6,49.22-20.69,15.36-41.6,30.87-59.94,48.84C73.64,162.65,41.11,215.64,19,275,8.91,302.16,1.78,330,.22,359c-1,18.18,1.06,35.61,9.53,52.36,8,15.78,16,31.57,19.7,49.37,3.29,15.65,13.21,28.26,25.44,38.6,25.51,21.57,55.81,31.32,88.43,34.4,19.05,1.8,38.23,2.25,57.35,3.17,10.89.53,21.45-.42,31.8-4.78,4.79-2,10.69-1.4,16.1-1.92,3.85-.38,8,.15,11.51-1.16,9.64-3.59,18.9-8.18,28.49-11.91,16.19-6.32,29.84-16.59,43.86-26.51,8.18-5.78,17.16-11.44,26.64-14.16,20.18-5.79,28.29-23.51,17.57-41.7-1.6-2.71-3.41-5.57-4-8.57-1.12-6-4.82-6.33-9-4.47-9.56,4.22-19.34,8.18-28.24,13.56-18.53,11.19-36.45,23.37-54.82,34.83a102,102,0,0,1-18.68,9.43c-17.66,6.45-35.51,6.72-52.12-2.79a61.22,61.22,0,0,0-26.75-8.3,10.55,10.55,0,0,1-5.71-2.53c-31.44-27.26-52.15-61-61.42-101.7C112.15,347.76,113,331.14,113.43,314.45Z"/><path class="cls-1" d="M670.2,35.85c18.85,21.21,21.78,40.9,20.63,66.41-.75,16.56-3.3,33.16-6.4,49.48-10.65,56.1-25.62,111.26-35.3,167.63-7.68,44.75-19.27,88.82-28.6,133.3a318.9,318.9,0,0,0-6.38,44.4c-.9,13.83,7.16,24.05,19.94,28.61,5.32,1.89,10.71,3.93,16.25,4.85,11.86,2,21.26-.07,22.67-13.19a216.85,216.85,0,0,1,11.84-50.45c15.56-43.15,40-81.15,68.46-116.69a178.72,178.72,0,0,1,23-23.54c4.72-4.06,11.11-6.44,17.09-8.65,1.82-.67,6.18,1.1,7,2.85,4.41,9.62,7.61,19.8,4.6,30.44-8.73,30.93-18,61.69-26.64,92.64-5.34,19.22-9.9,38.66-14.57,58.06a12,12,0,0,0,.85,7.22c5.33,11.83,13.91,19.18,27.57,19.7a116.11,116.11,0,0,1,19.23,2.24,34.36,34.36,0,0,0,27.15-5.1c12.54-8.21,25.11-16.4,38-24.1,16.71-10,24.94-25.8,30.92-43.32a14.51,14.51,0,0,0,.38-3.92c.46-8.73-8.11-11.87-10.76-18.67a63.06,63.06,0,0,0-21.79,14c-5.35,5.26-12.14,9.07-18.39,13.37-2.79,1.92-5.28.88-7.53-1.4-5.85-5.92-8.75-13.15-8.18-21.27a90.13,90.13,0,0,1,3.48-20.62c8.66-27.63,17.92-55.08,26.77-82.66,6.2-19.33,12.44-38.66,17.9-58.2,1.64-5.87,2.32-12.93.6-18.58C887.3,252,882.39,244,878.15,235.9c-11.35-21.72-37.13-21.21-50.3-7.84-2.92,3-6.11,5.68-9,8.71-23.87,25.35-47.55,50.87-71.58,76-8.95,9.38-18.45,18.27-28.16,26.86-4.56,4-9.38,2.09-10.88-3.85a28.76,28.76,0,0,1-.95-10.37c2.26-17.65,3.43-35.61,7.66-52.81,11.18-45.41,23.78-90.48,35.75-135.7,8-30.33,14.76-60.88,14.52-92.51-.09-11.5-1.86-22.59-8.85-32.21-7.31-10.06-15.78-12.84-27-7.33-7.08,3.47-13.35,8.64-19.82,13.27-5.69,4.06-11,8.69-16.74,12.6C686.33,35.19,679.06,37.42,670.2,35.85Z"/><path class="cls-1" d="M548.54,48.37,547,48.24c0-7.17.52-14.38-.15-21.48a92.55,92.55,0,0,0-4.08-20.93C540.6-.5,536.06-1.53,530.42,2c-6,3.83-11.82,8.08-17.78,12.05-5.76,3.84-7.57,3.41-11.14-2.35-.88-1.42-1.74-2.84-2.58-4.28-1.71-2.93-3.55-3.21-5.74-.44-5.77,7.3-13.56,9.12-22.37,8.15a77.9,77.9,0,0,0-8.46-.74c-5.25,0-8.64,2.85-8,8,.53,4.61,2.44,9.18,4.41,13.47,2.07,4.51,5.71,8.38,7.27,13,4.5,13.31,7.85,27.15,6.79,41.19-2.07,27.23-4.44,54.48-8.16,81.52-10.86,78.91-27,156.85-45.18,234.37-5,21.38-10,42.81-13.69,64.44-2.28,13.36-2,27.3,7.68,38.5,16.87,19.5,37.62,30.36,64.22,27.36,6.12-.69,12.28-1.15,18.43-1.35a49.05,49.05,0,0,0,31.42-12.33c4.66-4,9.78-7.48,14.75-11.13,8.18-6,16.63-11.71,24.55-18.05,9.68-7.74,18.52-16.42,23.65-28A39.82,39.82,0,0,0,593.89,453c.43-4.93-1-9.77-6.14-12.11s-8.93.37-12.25,4.06a18.29,18.29,0,0,1-1.8,1.72c-14.77,12.5-30.24,23.5-50.31,25.8-27.86,3.18-49.32-18-46.05-45.8,1-8.11,1.68-16.27,3.09-24.29,10.15-57.39,20.16-114.8,30.84-172.09,4.91-26.33,10.78-52.51,17.09-78.54,4-16.31,10.86-32,14-48.4C545.88,85.32,546.61,66.73,548.54,48.37Z"/><path d="M113.43,314.45c-.46,16.69-1.28,33.31,2.48,49.78,9.27,40.68,30,74.44,61.42,101.7a10.55,10.55,0,0,0,5.71,2.53,61.22,61.22,0,0,1,26.75,8.3c16.61,9.51,34.46,9.24,52.12,2.79a102,102,0,0,0,18.68-9.43c18.37-11.46,36.29-23.64,54.82-34.83,8.9-5.38,18.68-9.34,28.24-13.56,4.21-1.86,7.91-1.51,9,4.47.55,3,2.36,5.86,4,8.57,10.72,18.19,2.61,35.91-17.57,41.7-9.48,2.72-18.46,8.38-26.64,14.16-14,9.92-27.67,20.19-43.86,26.51-9.59,3.73-18.85,8.32-28.49,11.91-3.49,1.31-7.66.78-11.51,1.16-5.41.52-11.31-.1-16.1,1.92-10.35,4.36-20.91,5.31-31.8,4.78-19.12-.92-38.3-1.37-57.35-3.17-32.62-3.08-62.92-12.83-88.43-34.4C42.66,489,32.74,476.39,29.45,460.74c-3.74-17.8-11.72-33.59-19.7-49.37C1.28,394.62-.75,377.19.22,359,1.78,330,8.91,302.16,19,275c22.1-59.38,54.63-112.37,99.92-156.71,18.34-18,39.25-33.48,59.94-48.84,23.25-17.26,47-34,71.6-49.22a131.57,131.57,0,0,1,70-19.34,133.46,133.46,0,0,1,50.22,9.83c5,2,10.2,5.93,12.87,10.43,5,8.46,8.72,17.83,12.16,27.12C398,54.6,395.22,59.9,389.89,64c-12.62,9.61-27,10.61-41.89,8.48-5.17-.74-10.15-2.94-15.18-4.62a61.49,61.49,0,0,0-34.95-1.51c-19.37,4.85-38.74,9.7-58,14.88-12.19,3.28-22.42,10.41-31.29,19C173.44,134.48,145,173.56,127.43,219.5c-6,15.62-7.84,33-10.28,49.73C115,284.16,114.6,299.37,113.43,314.45Z"/><path d="M670.2,35.85c8.86,1.57,16.13-.66,22.64-5.08,5.77-3.91,11-8.54,16.74-12.6,6.47-4.63,12.74-9.8,19.82-13.27,11.22-5.51,19.69-2.73,27,7.33,7,9.62,8.76,20.71,8.85,32.21.24,31.63-6.49,62.18-14.52,92.51-12,45.22-24.57,90.29-35.75,135.7-4.23,17.2-5.4,35.16-7.66,52.81a28.76,28.76,0,0,0,.95,10.37c1.5,5.94,6.32,7.89,10.88,3.85,9.71-8.59,19.21-17.48,28.16-26.86,24-25.18,47.71-50.7,71.58-76,2.85-3,6-5.74,9-8.71,13.17-13.37,38.95-13.88,50.3,7.84,4.24,8.11,9.15,16.1,11.77,24.75,1.72,5.65,1,12.71-.6,18.58-5.46,19.54-11.7,38.87-17.9,58.2-8.85,27.58-18.11,55-26.77,82.66a90.13,90.13,0,0,0-3.48,20.62c-.57,8.12,2.33,15.35,8.18,21.27,2.25,2.28,4.74,3.32,7.53,1.4,6.25-4.3,13-8.11,18.39-13.37a63.06,63.06,0,0,1,21.79-14c2.65,6.8,11.22,9.94,10.76,18.67a14.51,14.51,0,0,1-.38,3.92c-6,17.52-14.21,33.32-30.92,43.32-12.86,7.7-25.43,15.89-38,24.1a34.36,34.36,0,0,1-27.15,5.1,116.11,116.11,0,0,0-19.23-2.24c-13.66-.52-22.24-7.87-27.57-19.7a12,12,0,0,1-.85-7.22c4.67-19.4,9.23-38.84,14.57-58.06C786.93,413,796.23,382.23,805,351.3c3-10.64-.19-20.82-4.6-30.44-.8-1.75-5.16-3.52-7-2.85-6,2.21-12.37,4.59-17.09,8.65a178.72,178.72,0,0,0-23,23.54c-28.47,35.54-52.9,73.54-68.46,116.69A216.85,216.85,0,0,0,673,517.34c-1.41,13.12-10.81,15.17-22.67,13.19-5.54-.92-10.93-3-16.25-4.85-12.78-4.56-20.84-14.78-19.94-28.61a318.9,318.9,0,0,1,6.38-44.4c9.33-44.48,20.92-88.55,28.6-133.3,9.68-56.37,24.65-111.53,35.3-167.63,3.1-16.32,5.65-32.92,6.4-49.48C692,76.75,689.05,57.06,670.2,35.85Z"/><path d="M548.54,48.37c-1.93,18.36-2.66,36.95-6.14,55-3.18,16.42-10.08,32.09-14,48.4-6.31,26-12.18,52.21-17.09,78.54-10.68,57.29-20.69,114.7-30.84,172.09-1.41,8-2.14,16.18-3.09,24.29-3.27,27.77,18.19,49,46.05,45.8,20.07-2.3,35.54-13.3,50.31-25.8a18.29,18.29,0,0,0,1.8-1.72c3.32-3.69,7.1-6.42,12.25-4.06s6.57,7.18,6.14,12.11a39.82,39.82,0,0,1-3.44,12.37c-5.13,11.58-14,20.26-23.65,28-7.92,6.34-16.37,12-24.55,18.05-5,3.65-10.09,7.12-14.75,11.13a49.05,49.05,0,0,1-31.42,12.33c-6.15.2-12.31.66-18.43,1.35-26.6,3-47.35-7.86-64.22-27.36-9.68-11.2-10-25.14-7.68-38.5,3.69-21.63,8.67-43.06,13.69-64.44,18.18-77.52,34.32-155.46,45.18-234.37,3.72-27,6.09-54.29,8.16-81.52,1.06-14-2.29-27.88-6.79-41.19-1.56-4.63-5.2-8.5-7.27-13-2-4.29-3.88-8.86-4.41-13.47-.6-5.13,2.79-8,8-8a77.9,77.9,0,0,1,8.46.74c8.81,1,16.6-.85,22.37-8.15,2.19-2.77,4-2.49,5.74.44.84,1.44,1.7,2.86,2.58,4.28,3.57,5.76,5.38,6.19,11.14,2.35,6-4,11.73-8.22,17.78-12,5.64-3.56,10.18-2.53,12.31,3.8a92.55,92.55,0,0,1,4.08,20.93c.67,7.1.15,14.31.15,21.48Z"/></g></g></svg>